<?xml version="1.0" encoding="UTF-8"?>
<svg width="36mm" height="10.5mm" version="1.1" viewBox="0 0 54.000695 15.749907" xmlns="http://www.w3.org/2000/svg" xmlns:cc="http://creativecommons.org/ns#" xmlns:dc="http://purl.org/dc/elements/1.1/" xmlns:rdf="http://www.w3.org/1999/02/22-rdf-syntax-ns#">
 <metadata>
  <rdf:RDF>
   <cc:Work rdf:about="">
    <dc:format>image/svg+xml</dc:format>
    <dc:type rdf:resource="http://purl.org/dc/dcmitype/StillImage"/>
    <dc:title/>
   </cc:Work>
  </rdf:RDF>
 </metadata>
 <rect y="-.00014809" width="54.001" height="15.75" color="#000000" color-rendering="auto" fill="#00001f" image-rendering="auto" shape-rendering="auto" solid-color="#000000" style="isolation:auto;mix-blend-mode:normal"/>
 <g transform="translate(-83.369 -129.62)">
  <g transform="matrix(.084133 0 0 .084133 410.65 201.79)" fill="#fff">
   <path d="m-3430.7-736.28c-2.622 6.2362-8.2205 10.382-19.701 11.799-10.382 1.311-18.992-7.689-27.213-16.547-8.185-8.8583-15.732-14.598-20.48-17.539s-15.732-6.5551-25.724-15.094c-9.4252-8.0079-9.8504-15.909-9.8504-15.909s-0.1417-0.70866-0.1772-1.8071c0.7441 1.9488 1.7717 4.0394 3.2599 5.8465 4.0039 4.8898 17.716 11.516 17.716 11.516-5.315-2.6575-14.634-8.8228-17.716-12.827-2.1614-2.8346-3.1536-6.2717-2.9764-7.4055s1.0984-3.0827 2.5866-4.3228c8.0787-6.7323 17.291-5.4213 22.713-5.4213 2.3386 0 5.1378 0.46063 7.6181 0.99213-0.071-0.0354-0.1063-0.0354-0.1063-0.0354s-7.8307-0.46063-9.8858 1.1693c-2.0906 1.5945-3.685 6.6614-3.685 7.8307 0 0.56693 0.2834 0.92126 0.5669 1.0984 1.0275-7.2992 3.7913-7.0866 3.7913-7.0866l-3.5079 7.2638c0.1418 0.0709 0.2835 0.1063 0.2835 0.1063-1.3819 6.9094 2.7638 12.189 4.6063 14.953s8.0433 6.6614 8.0433 6.6614 5.315 2.3031 9 4.8543c3.6851 2.5157 14.032 8.5039 14.032 8.5039 2.3032-0.2126-7.122-10.134-7.122-10.134s-1.63-0.81496-5.067-1.6654l6.4489 5.1378c-4.1457-1.9488-7.0512-4.3583-8.8937-6.1654-3.5079-2.6575-7.3347-10.205-9.3189-17.079-2.3032-8.0787 0.9212-11.055 0.9212-11.055s1.1339-1.4528 5.6339-1.878c1.559-0.4252 4.2519-0.74409 8.185 0.24803l-4.9606 0.17717c2.6929 1.2047 6.2716 2.7638 10.311 5.4567 3.3307 2.2323 9.5669 8.2559 15.555 14.138 0.4607-4.1102-1.2047-8.6811-6.8386-13.075-3.7913-2.9409-6.0944-4.6772-7.37-5.5984l-4.3937-1.0984s4.2874-0.81496 13.783 3.189c1.4174 0.49606 2.7284 1.063 3.7205 1.6654 4.3583 2.5158 6.6614 6.4488 7.8307 11.976 1.1339 5.4921 1.5945 11.48 1.5945 13.571 0 1.4882-0.4606 2.7283-0.7087 3.2953 0.1772 0.0354 0.3189 0 0.4607-0.0709 0 0 0.8858-2.5158 1.3819-4.748 0.7795 0.7441 1.5236 1.4173 2.1968 2.0197 6.874 6.059 19.028 16.37 21.65 19.807 0 0 5.4921 4.1102 1.8071 13.287z"/>
   <path d="m-3828.7-739.26c2.0197-9.3189 3.9331-18.638 5.7402-27.957 0.8858-4.6772 1.7716-9.3543 2.622-14.032 0.4607-2.3386 0.8504-4.7126 1.2756-7.0158 2.126 0.1063 4.2166 0.14174 6.3425 0.14174 2.126 0 4.2166-0.0354 6.3426-0.14174 0.4252 2.3032 0.8149 4.6772 1.2401 7.0158 0.8504 4.6772 1.7362 9.3543 2.6575 14.032 1.7717 9.3189 3.685 18.638 5.6693 27.957-2.9409-0.14173-5.9173-0.17717-8.8583-0.0354-2.6929 0.14173-1.8071-0.74409-2.0905-3.0827-0.2126-1.5945-0.4607-3.189-0.815-4.7835-0.6023-2.8701-5.7401-1.8071-8.2913-1.5591-0.7087 3.1181-1.0984 6.3425-1.2402 9.5315-3.5433-0.24804-7.0512-0.24804-10.594-0.0709m15.874-40.075c-0.1771-0.17717 0.3189 0.31889 0.035-0.14174 0.1771 3.7205-1.063 7.3346-1.4173 10.984-0.2126 2.126-0.5315 4.2165-0.8859 6.3071-0.2834 1.9134-1.6653 4.748 0.7441 4.9252 2.3032 0.14173 4.5 0.85039 4.252-1.8425-0.2126-2.2677-0.4606-4.5354-0.7441-6.7677-0.5669-4.5-1.2047-9-1.9843-13.465"/>
   <path d="m-3794.4-739.22c0.2834-16.335 0.2834-32.705-0.035-49.039 3.5434 0.17717 7.0512 0.17717 10.594 0-0.2126 8.8937-0.2834 17.787-0.2126 26.717 0.035 4.1457 0.1063 8.2913 0.2126 12.437 4.1811 0.21259 8.3977 0.21259 12.579-0.0354-0.2481 3.3307-0.2481 6.6614-0.035 9.9921-7.6889-0.31889-15.413-0.28346-23.102-0.0709"/>
   <path d="m-3767.6-739.26c0.2834-16.335 0.2834-32.705 0-49.039 3.8268 0.17717 7.6535 0.2126 11.516 0.14173 2.1969-0.0709 3.1181-0.99212 3.5079 1.4882 0.3543 2.1614 0.7795 4.2874 1.2047 6.4134 0.7087 3.6142 1.3819 7.1929 1.878 10.807 0.4606 3.2598 2.3386 7.0158 1.9488 10.24 0-0.28346 0.035-0.28346 0.035 0-0.1771-2.9055 1.3111-5.8465 1.8071-8.6811 0.6024-3.5787 1.1339-7.1575 1.8425-10.736 0.3189-1.5945 0.6378-3.2244 0.9567-4.8189 0.4607-2.3032-0.1771-4.8898 2.4803-4.7835 4.3583 0.17716 8.7166 0.14173 13.075-0.0354-0.3189 16.335-0.3189 32.705-0.035 49.004-3.3308-0.17716-6.7323-0.17716-10.098 0.0354 0.3898-6.9449 0.2835-13.89 0.6024-20.835 0.1417-3.0827 0.5315-6.2362 0.4252-9.3189-0.071-2.5158-0.5315-6.5197 0.1063-8.1496-0.071 5.2441-2.5866 13.039-3.5788 19.028-0.6732 4.1102-1.559 8.185-2.374 12.26-0.3189 1.7362-0.6732 3.5079-0.9921 5.2441-0.4961 2.7992-2.5512 1.5945-5.0669 1.6299-2.3032 0.0354-2.9764 1.0276-3.437-1.6299-0.3898-2.3032-0.815-4.6417-1.2756-6.9803-0.7442-4.0039-1.5945-8.0079-2.2678-12.047-0.9212-5.6339-3.0827-12.862-3.2598-17.752 1.1693 5.563 0.1063 11.976 0.4606 17.646 0.4252 6.9449 0.248 13.925 0.5669 20.906-3.3307-0.2126-6.6968-0.2126-10.028-0.0354"/>
   <path d="m-3724.2-739.26c2.0197-9.3189 3.9331-18.638 5.7402-27.957 0.9212-4.6772 1.8071-9.3543 2.6575-14.032 0.4252-2.3386 0.8504-4.7126 1.2756-7.0158 2.0905 0.1063 4.2165 0.14174 6.3425 0.14174 2.0905 0 4.2165-0.0354 6.3071-0.14174 0.4252 2.3032 0.8504 4.6772 1.2756 7.0158 0.8504 4.6772 1.7362 9.3543 2.622 14.032 1.8071 9.3189 3.7205 18.638 5.7047 27.957-2.9763-0.14173-5.9173-0.17717-8.8937-0.0354-2.6929 0.14173-1.7716-0.74409-2.0551-3.0827-0.2126-1.5945-0.4961-3.189-0.815-4.7835-0.6377-2.8701-5.7401-1.8071-8.2913-1.5591-0.7087 3.1181-1.0984 6.3425-1.2756 9.5315-3.5079-0.24804-7.0512-0.24804-10.594-0.0709m15.874-40.075c-0.1417-0.17717 0.3544 0.31889 0.035-0.14174 0.2126 3.7205-1.063 7.3346-1.4173 10.984-0.1771 2.126-0.5315 4.2165-0.8504 6.3071-0.3189 1.9134-1.7008 4.748 0.7441 4.9252 2.2677 0.14173 4.4646 0.85039 4.2166-1.8425-0.2126-2.2677-0.4607-4.5354-0.7441-6.7677-0.5315-4.5-1.2048-9-1.9843-13.465"/>
   <path d="m-3680.6-766.65c-0.1063-0.14174 0.4961 0.1063-0.071-0.0354 1.4528 2.9764 0.2126 8.7165 0.4961 11.976 0.4606 5.1378 0.248 10.311 0.6023 15.484-3.3307-0.2126-6.6968-0.2126-10.028-0.0354 0.3189-16.335 0.3189-32.669 0-49.004 3.0826 0.17716 6.2008 0.2126 9.3189 0.0354 2.4094-0.1063 1.8779 1.2756 2.4803 3.3661 0.6378 2.3032 1.3464 4.5709 2.0197 6.8386 0.9212 2.9764 1.6653 5.9528 2.4448 8.9646 0.6733 2.6575 2.6221 5.4921 2.5158 8.2913 0-0.3189 0.035-0.3189 0.071 0-1.4173-8.9646-0.4252-18.461-1.063-27.496 3.3661 0.21259 6.7323 0.17716 10.063 0-0.3189 16.335-0.3189 32.705 0 49.039-2.5866-0.14174-5.1732-0.17717-7.7244-0.14174-2.3032 0.0709-2.8701 0.92126-3.5433-1.5945-0.4607-1.7008-0.9213-3.437-1.3819-5.1732-1.9134-6.874-3.9685-13.713-6.2008-20.516"/>
   <path d="m-3658.9-739.26c1.9843-9.3189 3.8977-18.638 5.7048-27.957 0.9212-4.6772 1.8071-9.3543 2.6575-14.032 0.4252-2.3386 0.8503-4.7126 1.2755-7.0158 2.0906 0.1063 4.2166 0.14174 6.3426 0.14174 2.0905 0 4.2165-0.0354 6.3071-0.14174 0.4251 2.3032 0.8503 4.6772 1.2755 7.0158 0.8504 4.6772 1.7363 9.3543 2.6221 14.032 1.8071 9.3189 3.7205 18.638 5.7047 27.957-2.9409-0.14173-5.9173-0.17717-8.8937-0.0354-2.6929 0.14173-1.7716-0.74409-2.0551-3.0827-0.2126-1.5945-0.4961-3.189-0.815-4.7835-0.6378-2.8701-5.7401-1.8071-8.2913-1.5591-0.7087 3.1181-1.0984 6.3425-1.2756 9.5315-3.5079-0.24803-7.0512-0.24803-10.559-0.0709m15.839-40.075c-0.1417-0.17717 0.3544 0.31889 0.035-0.14174 0.2126 3.7205-1.063 7.3346-1.3819 10.984-0.2126 2.126-0.5669 4.2165-0.8858 6.3071-0.3189 1.9134-1.7008 4.748 0.7441 4.9252 2.2677 0.14173 4.4646 0.85039 4.2165-1.8425-0.2125-2.2677-0.4606-4.5354-0.744-6.7677-0.5315-4.5-1.2048-9-1.9843-13.465" fill="#fff"/>
   <path d="m-3596.1-754.88c-0.3543 3.2598-0.1771 6.2716-1.559 9.3189-0.815 1.8071-1.7717 2.3032-0.4961 4.0394 1.2047 1.6299 2.5158 3.1536 3.9685 4.5709-2.2323 1.7362-4.2874 3.7205-6.1653 5.8465-1.2402-1.878-2.8347-3.4016-4.0394-5.2795-1.8425-3.0118-3.0473-1.063-5.8465-1.5945-4.1102-0.77953-10.028-1.4173-11.835-6.0236-2.3032-5.811-2.126-11.339-2.2323-17.433-0.1063-5.7756-0.4606-11.906 0.7087-17.61 1.0984-5.3858 3.7204-7.7598 8.8937-9.6378 5.4567-1.9843 10.134 0.21259 14.846 2.9409 3.2244 1.9134 3.7559 9.6732 3.7914 12.827 0.1417 6.0236-0.3189 12.047-0.035 18.035m-17.681 0.99212c-0.1417 2.1614-0.035 5.1024 2.0906 6.3425 2.6575 1.5236 4.4646-0.74409 4.8898-3.189 0.5669-3.0827-0.035-6.4488 0.035-9.6024 0.1063-4.5709-0.1063-9.2126 0.1771-13.748 0.1063-2.0551-0.1771-5.2441-2.4449-6.0945-2.7283-1.0276-4.1456 0.7441-4.5354 3.2953-1.1693 7.4409-0.5669 15.52-0.2126 22.996"/>
   <path d="m-3591.6-788.26c3.5433 0.17717 7.0512 0.17717 10.594 0-0.2126 7.937 0.035 15.874-0.1417 23.811-0.071 3.5787-1.8071 14.138 1.311 16.972 2.3386 2.0906 5.4213-0.6378 5.6693-3.1181 0.4606-4.1811 0.2835-8.6811 0.1772-12.898-0.1772-8.2559 0.035-16.512-0.1418-24.768 3.5079 0.17717 7.0512 0.17717 10.559 0-0.2835 10.63-0.3544 21.366-0.071 31.996 0.2126 8.185-1.9488 17.752-11.941 18.213-9.7441 0.4252-16.264-5.7047-15.98-15.555 0.3189-11.551 0.2835-23.102-0.035-34.654"/>
   <path d="m-3558.7-739.22c0.3189-16.335 0.3189-32.705 0-49.075 7.9371 0.24803 15.91 0.24803 23.846-0.0354-0.2126 3.3307-0.2126 6.6614 0.035 9.9921-2.7992-0.17717-5.563-0.24804-8.3622-0.2126-1.6654 0.0354-3.3307 0.1063-4.9961 0.2126-0.1417 1.4528-0.1771 2.9409-0.1771 4.3937 0 0.99212 0 1.9842 0.071 2.9764 0.1417 2.2677 1.3464 1.5591 3.3307 1.5945 3.2244 0.1063 6.4842 0.0709 9.7086-0.14173-0.248 3.3307-0.248 6.6614 0 9.9567-2.6929-0.14173-5.3858-0.2126-8.0787-0.17716-1.6299 0.0354-3.2244 0.0709-4.8543 0.17716-0.1063 1.7362-0.1772 3.4724-0.1772 5.2087 0 1.1693 0 2.3386 0.071 3.4724 0.1417 2.6575 1.311 1.8071 3.6142 1.878 3.5079 0.1063 7.0157 0.0709 10.524-0.14173-0.248 3.2953-0.2126 6.6614 0 9.9921-8.185-0.3189-16.37-0.28346-24.555-0.0709"/>
   <path d="m-3425.8-740.36c2.0197-9.3189 3.9331-18.638 5.7402-27.992 0.9212-4.6772 1.8071-9.3543 2.6575-14.032 0.4252-2.3386 0.8504-4.6772 1.2401-7.0158 2.126 0.1063 4.252 0.17717 6.3425 0.17717 2.126 0 4.252-0.0709 6.3426-0.17717l1.2756 7.0158c0.8504 4.6772 1.7007 9.3543 2.622 14.032 1.8071 9.3543 3.685 18.673 5.7047 27.992-2.9763-0.14173-5.9173-0.17716-8.8937-0.0354-2.6929 0.14174-1.7716-0.77952-2.0905-3.0827-0.1772-1.6299-0.4607-3.2244-0.7796-4.7835-0.6377-2.8701-5.7401-1.8071-8.2913-1.5945-0.7087 3.1536-1.0984 6.3425-1.2756 9.5669-3.5079-0.28346-7.0512-0.24803-10.594-0.0709m15.874-40.075c-0.1417-0.17716 0.3544 0.28347 0.035-0.14173 0.1772 3.685-1.063 7.3346-1.4173 10.984-0.1771 2.126-0.5315 4.2165-0.8504 6.3071-0.3189 1.9134-1.7008 4.7126 0.7087 4.8898 2.3031 0.17717 4.5 0.88583 4.252-1.8425-0.2126-2.2677-0.4607-4.5-0.7441-6.7677-0.5315-4.5-1.2048-8.9646-1.9843-13.429"/>
   <path d="m-3392-789.47c7.7953 0.3189 15.626 0.3189 23.457 0-0.1771 2.6929 0.2126 5.3858 0.1772 8.0433-0.035 3.0827-2.622 6.5551-3.7913 9.3543-3.0473 7.2992-6.2363 14.563-9.1063 21.898 4.4291 0.17717 8.8937 0.17717 13.323-0.1063-0.248 3.3307-0.2126 6.6969 0 10.028-8.3268-0.31889-16.689-0.31889-25.016 0 0.1771-2.5866-0.1772-5.1378-0.1772-7.7244 0.035-3.0118 2.622-6.4842 3.7913-9.248 3.1181-7.4409 6.378-14.846 9.3544-22.323-4.004-0.17717-8.0433-0.17717-12.047 0.1063 0.248-3.3307 0.2126-6.6968 0.035-10.028"/>
   <path d="m-3365.1-789.36c3.5433 0.17716 7.0512 0.17716 10.594 0-0.2126 7.937 0.035 15.874-0.1418 23.811-0.071 3.5787-1.807 14.138 1.3111 16.937 2.3385 2.126 5.4212-0.60236 5.6693-3.0827 0.4606-4.2165 0.3189-8.6811 0.1771-12.933-0.1771-8.2205 0.071-16.476-0.1417-24.732 3.5079 0.17716 7.0512 0.17716 10.559 0-0.2834 10.594-0.3543 21.366-0.071 31.996 0.2126 8.185-1.9488 17.717-11.941 18.177-9.7441 0.46063-16.228-5.7047-15.98-15.555 0.3189-11.551 0.2835-23.102-0.035-34.618"/>
   <path d="m-3332.7-740.32c0.3189-16.335 0.3189-32.705 0-49.039 3.5079 0.17716 7.0512 0.17716 10.559 0-0.2126 8.8937-0.2481 17.787-0.1772 26.717 0.035 4.1457 0.1063 8.2913 0.1772 12.437 4.2165 0.2126 8.433 0.2126 12.614-0.0709-0.248 3.3307-0.248 6.6968-0.035 10.028-7.6889-0.3189-15.413-0.28346-23.138-0.0709"/>
  </g>
 </g>
</svg>
